<svg width="111px" height="42px" viewBox="0 0 111 42" version="1.1" xmlns="http://www.w3.org/2000/svg" xmlns:xlink="http://www.w3.org/1999/xlink">
    <!-- Generator: Sketch 46.2 (44496) - http://www.bohemiancoding.com/sketch -->
    <desc>Created with Sketch.</desc>
    <defs></defs>
    <g id="Page-2" stroke="none" stroke-width="1" fill="none" fill-rule="evenodd">
        <g id="Artboard" transform="translate(-633.000000, -43.000000)">
            <g id="Hero" transform="translate(373.000000, 43.000000)">
                <g id="Logo" transform="translate(259.000000, 0.000000)">
                    <text id="Rocket" font-family=".SFNSDisplay-Regular, .SF NS Display" font-size="20" font-weight="normal" fill="#31475E">
                        <tspan x="0" y="34">Rocket</tspan>
                    </text>
                    <g id="Page-1" transform="translate(65.000000, 0.000000)">
                        <polygon id="Fill-1" fill="#C6CBCB" points="0 1.15384615e-05 30.3704829 38.7214731 33.0701171 29.5020115"></polygon>
                        <polygon id="Fill-2" fill="#1B9265" points="21.2274927 18.9370385 19.1425268 24.4061538 30.3704829 38.7214615 33.0701171 29.502"></polygon>
                        <polygon id="Fill-3" fill="#D1D5D5" points="0 1.15384615e-05 24.4896366 33.8689731 30.3704829 38.7214731 27.5744415 31.8312808"></polygon>
                        <polygon id="Fill-4" fill="#E2E5E7" points="11.7624951 41.9238462 27.5744415 31.8312692 0 -5.68434189e-14"></polygon>
                        <polygon id="Fill-5" fill="#E2E5E7" points="33.07014 29.5019769 46.9542839 23.3879769 2.29268293e-05 -2.30769231e-05"></polygon>
                        <polygon id="Fill-6" fill="#24B47E" points="11.3491932 40.4503731 11.7624493 41.9238346 27.5897566 31.8191423 16.7499517 19.33545"></polygon>
                        <polygon id="Fill-7" fill="#24B47E" points="33.0589976 29.5411269 46.9543756 23.3878962 45.0216439 22.4255885 21.2274927 18.93705"></polygon>
                        <polygon id="Fill-8" fill="#24B47E" points="16.7499976 19.3354615 11.349239 40.4503846 17.5434951 20.25"></polygon>
                        <polygon id="Fill-9" fill="#24B47E" points="21.2274927 18.9370385 22.2824707 19.8830769 45.0216439 22.4255769"></polygon>
                        <polygon id="Fill-10" fill="#C6CBCB" points="27.5896878 31.8191538 24.4546732 33.8207308 26.8539659 35.8197692"></polygon>
                        <polygon id="Fill-11" fill="#24B47E" points="0 1.15384615e-05 1.16605854 4.15616538 2.1099561 2.43520385"></polygon>
                        <polygon id="Fill-12" fill="#24B47E" points="0 1.15384615e-05 2.55955122 2.28335769 4.69014146 2.33608846"></polygon>
                    </g>
                </g>
            </g>
        </g>
    </g>
</svg>
